<?xml version="1.0" encoding="UTF-8"?>
<svg id="Layer_2" data-name="Layer 2" xmlns="http://www.w3.org/2000/svg" viewBox="0 0 103.61 25.26">
  <defs>
    <style>
      .cls-1 {
        fill: #f8fbfd;
      }

      .cls-2 {
        fill: #eb4998;
      }

      .cls-3 {
        fill: #ea4a97;
      }

      .cls-4 {
        fill: #f8fcfe;
      }
    </style>
  </defs>
  <g id="Layer_1-2" data-name="Layer 1">
    <g>
      <path class="cls-3" d="m11.97,0c1.12,1.16,1.81,2.73,1.81,4.46h4.44V0h-6.25Z"/>
      <path class="cls-4" d="m9.63,19.98c-1.89-.35-3.49,1.26-3.13,3.14.2,1.04,1.05,1.89,2.09,2.09,1.87.36,3.49-1.25,3.14-3.13-.19-1.05-1.05-1.91-2.1-2.1Z"/>
      <path class="cls-1" d="m7.31,0H0v4.46h6.45v14.62c.66-.71,1.61-1.15,2.66-1.15s2,.44,2.67,1.15V4.46c-.01-2.47-2-4.46-4.47-4.46Z"/>
      <path class="cls-1" d="m29.21,7.06c-.34-.06-.76-.09-1.26-.09-.91,0-1.83.3-2.74.88-.91.59-1.69,1.49-2.34,2.69h-.14l-.36-3.14h-4.32v17.86h5.29v-10.37c.48-1.2,1.09-2.04,1.82-2.54.73-.49,1.43-.73,2.1-.73.39,0,.73.02,1.03.07s.61.12.92.21l.86-4.57c-.24-.12-.53-.21-.86-.27Z"/>
      <path class="cls-1" d="m44.55,8.52c-1.22-1.32-2.98-1.98-5.26-1.98-1.39,0-2.73.22-4.01.65-1.28.43-2.49,1-3.62,1.69l1.91,3.49c.86-.5,1.68-.9,2.45-1.18.77-.29,1.52-.44,2.27-.44.98,0,1.68.24,2.1.71.42.46.66,1.09.7,1.89-3.52.36-6.08,1.06-7.66,2.12-1.59,1.06-2.38,2.52-2.38,4.39,0,1.51.48,2.79,1.44,3.84.96,1.04,2.26,1.56,3.89,1.56,1.01,0,1.94-.21,2.79-.63.85-.42,1.65-.96,2.39-1.64h.15l.36,1.84h4.32v-10.22c0-2.74-.62-4.77-1.84-6.09Zm-3.46,11.13c-.45.45-.9.82-1.35,1.09-.44.28-.96.42-1.56.42-.63,0-1.12-.14-1.5-.42-.37-.27-.55-.7-.55-1.27,0-.7.36-1.31,1.08-1.82.72-.52,2.01-.9,3.88-1.14v3.14Z"/>
      <path class="cls-1" d="m88.75,10.74c-.57-1.29-1.41-2.31-2.52-3.06-1.12-.76-2.53-1.14-4.23-1.14-1.42,0-2.77.38-4.07,1.14-1.3.75-2.35,1.83-3.15,3.22-.81,1.39-1.21,3.06-1.21,5s.4,3.65,1.19,5.04c.79,1.39,1.87,2.46,3.24,3.21,1.37.74,2.91,1.11,4.61,1.11,1.05,0,2.15-.18,3.28-.54,1.12-.36,2.14-.85,3.06-1.47l-1.77-3.21c-1.29.79-2.58,1.19-3.85,1.19-1.18,0-2.18-.31-3.02-.92-.85-.61-1.39-1.56-1.62-2.86h10.69c.04-.22.09-.55.14-.99.05-.44.07-.89.07-1.35,0-1.63-.28-3.09-.84-4.37Zm-10.1,3.22c.19-1.13.61-1.98,1.26-2.54.65-.56,1.38-.85,2.2-.85,1.05,0,1.81.32,2.28.96.47.63.7,1.44.7,2.43h-6.44Z"/>
      <path class="cls-1" d="m102.74,7.06c-.33-.06-.75-.09-1.26-.09-.91,0-1.82.3-2.73.88-.91.59-1.69,1.49-2.34,2.69h-.15l-.36-3.14h-4.32v17.86h5.3v-10.37c.48-1.2,1.08-2.04,1.81-2.54.74-.49,1.44-.73,2.11-.73.38,0,.73.02,1.03.07s.6.12.91.21l.87-4.57c-.24-.12-.53-.21-.87-.27Z"/>
      <path class="cls-2" d="m67.86,14.75l6.26-7.35h-5.14l-6.26,7.35,6.73,10.51h5.14l-6.73-10.51Z"/>
      <polygon class="cls-1" points="59.81 14.73 66.07 7.38 65.45 7.38 60.31 7.38 59.66 8.2 54.66 14.48 54.52 14.48 54.52 0 54.51 0 49.37 0 49.37 25.24 54.51 25.24 54.52 25.24 54.52 20.85 56.79 18.29 59.66 23.24 60.82 25.24 65.96 25.24 66.54 25.24 59.81 14.73"/>
    </g>
  </g>
</svg>