<?xml version="1.0" encoding="UTF-8"?>
<svg id="Layer_2" data-name="Layer 2" xmlns="http://www.w3.org/2000/svg" viewBox="0 0 18.22 25.26">
  <defs>
    <style>
      .cls-1 {
        fill: #f8fbfd;
      }

      .cls-2 {
        fill: #ea4a97;
      }

      .cls-3 {
        fill: #f8fcfe;
      }
    </style>
  </defs>
  <g id="Layer_1-2" data-name="Layer 1">
    <g>
      <path class="cls-2" d="m11.97,0c1.12,1.16,1.81,2.73,1.81,4.46h4.44V0h-6.25Z"/>
      <path class="cls-3" d="m9.63,19.98c-1.89-.35-3.49,1.26-3.13,3.14.2,1.04,1.05,1.89,2.09,2.09,1.87.36,3.49-1.25,3.14-3.13-.19-1.05-1.05-1.91-2.1-2.1Z"/>
      <path class="cls-1" d="m7.31,0H0v4.46h6.45v14.62c.66-.71,1.61-1.15,2.66-1.15s2,.44,2.67,1.15V4.46c-.01-2.47-2-4.46-4.47-4.46Z"/>
    </g>
  </g>
</svg>